<svg width="683" height="359" viewBox="0 0 683 359" fill="none" xmlns="http://www.w3.org/2000/svg">
<path fill-rule="evenodd" clip-rule="evenodd" d="M0 0H683V355H0V0Z" fill="white"/>
<path fill-rule="evenodd" clip-rule="evenodd" d="M27 32H650V355H27V32Z" fill="#1D2138"/>
<g filter="url(#filter0_d)">
<path fill-rule="evenodd" clip-rule="evenodd" d="M377.502 302C374.198 314.158 368.552 324.942 360.564 334.354C333.319 366.457 282.031 366.423 255.1 334.471C247.195 325.098 241.612 314.308 238.347 302.102C236.048 293.508 234.899 284.212 234.899 274.215C234.899 250.175 241.711 230.128 255.334 214.076C268.958 198.023 286.574 189.996 308.184 189.996C329.636 189.996 347.135 197.986 360.681 213.959C374.224 229.936 380.999 250.019 380.999 274.215C380.999 284.161 379.834 293.422 377.502 302ZM333.787 237.108C327.052 227.26 318.361 222.335 307.714 222.335C297.064 222.335 288.454 227.184 281.877 236.875C275.3 246.57 272.011 259.016 272.011 274.215C272.011 284.733 273.636 293.961 276.889 301.901C278.289 305.319 279.991 308.498 281.994 311.438C295.304 330.983 321.143 330.939 334.139 311.555C336.146 308.561 337.843 305.304 339.23 301.784C342.334 293.911 343.887 284.721 343.887 274.215C343.887 259.326 340.518 246.959 333.787 237.108ZM103.011 327.258L157.74 282.823C168.545 273.982 175.98 266.886 180.054 261.536C184.124 256.184 186.161 250.252 186.161 243.738C186.161 237.072 184.124 231.873 180.054 228.151C175.98 224.428 170.659 222.567 164.082 222.567C157.975 222.567 152.455 224.236 147.522 227.569C142.59 230.906 136.912 236.526 130.493 244.436L105.125 224.196C113.735 212.563 122.624 204.035 131.785 198.604C140.945 193.177 152.492 190.462 166.431 190.462C183.497 190.462 197.201 195.078 207.536 204.305C217.871 213.534 223.039 225.824 223.039 241.179C223.039 250.019 221.314 257.969 217.871 265.026C214.425 272.085 209.962 278.286 204.482 283.637C198.999 288.988 190.778 295.851 179.819 304.226L153.042 324.699H224.683V355.641H103.011V327.258Z" fill="white"/>
</g>
<g filter="url(#filter1_d)">
<path fill-rule="evenodd" clip-rule="evenodd" d="M556.601 311.044V354.709H539.74V311.044H522.33V297.063H574.011V311.044H556.601ZM476.89 331.586C477.693 335.243 479.335 338.038 481.817 339.974C484.298 341.91 487.437 342.878 491.234 342.878C496.416 342.878 501.16 340.907 505.468 336.963L514.994 345.244C509.081 352.414 501.088 355.999 491.015 355.999C482.108 355.999 474.772 353.221 469.007 347.664C463.24 342.108 460.357 334.885 460.357 325.993C460.357 317.604 463.094 310.507 468.569 304.699C474.043 298.891 480.977 295.987 489.372 295.987C498.642 295.987 505.723 298.998 510.614 305.022C515.504 311.044 517.95 318.465 517.95 327.284C517.95 328.144 517.877 329.579 517.731 331.586H476.89ZM497.749 312.443C495.595 310.221 492.803 309.108 489.372 309.108C486.014 309.108 483.222 310.202 480.996 312.389C478.769 314.576 477.328 317.569 476.671 321.368H501.745C501.234 317.642 499.901 314.666 497.749 312.443ZM431.67 311.044H416.779C416.779 318.645 416.486 325.063 415.903 330.295C415.318 335.53 414.516 339.796 413.494 343.093C412.471 346.392 411.048 348.938 409.224 350.729C407.398 352.522 405.428 353.741 403.311 354.386C401.193 355.031 398.565 355.354 395.428 355.354C392.434 355.354 389.625 355.031 386.997 354.386L388.092 341.158C389.406 341.373 390.572 341.48 391.596 341.48C393.347 341.48 394.733 341.069 395.756 340.243C396.778 339.42 397.744 337.554 398.658 334.651C399.57 331.747 400.208 327.267 400.574 321.207C400.938 315.149 401.121 307.102 401.121 297.063H448.313V354.709H431.67V311.044Z" fill="white"/>
</g>
<path fill-rule="evenodd" clip-rule="evenodd" d="M543.216 90.5V80.851L538.92 87.428H538.824L534.551 80.899V90.5H529.991V73.699H534.911L538.92 80.203L542.928 73.699H547.848V90.5H543.216ZM513.743 73.699H527.256V77.659H518.351V80.203H526.416V83.875H518.351V86.54H527.376V90.5H513.743V73.699ZM505.92 81.043L499.416 90.5H495.071V73.699H499.68V83.155L506.184 73.699H510.529V90.5H505.92V81.043ZM493.921 116.779L500.113 126.5H494.593L490.753 120.163L489.144 122.036V126.5H484.488V122.036L482.88 120.163L479.039 126.5H473.519L479.712 116.779L473.735 109.699H479.184L484.488 116.515V109.699H489.144V116.515L494.449 109.699H499.897L493.921 116.779ZM487.2 84.115H481.224V90.5H476.568V73.699H481.224V79.987H487.2V73.699H491.857V90.5H487.2V84.115ZM460.32 73.699H473.833V77.659H464.928V80.203H472.993V83.875H464.928V86.54H473.953V90.5H460.32V73.699ZM452.449 77.779H448.536V78.427C448.536 88.676 446.28 90.74 443.016 90.74C441.792 90.74 440.592 90.476 440.232 90.356L440.544 86.78C440.76 86.828 441.408 86.876 441.624 86.876C442.944 86.876 444.192 86.204 444.192 76.027V73.699H457.105V90.5H452.449V77.779ZM433.321 90.5H424.656V73.699H433.273C435.385 73.699 436.873 74.227 437.857 75.211C438.529 75.883 438.937 76.771 438.937 77.971C438.937 79.915 437.833 81.067 436.345 81.715C438.385 82.387 439.681 83.539 439.681 85.868C439.681 88.748 437.329 90.5 433.321 90.5ZM432.217 77.443H429.192V80.395H432.121C433.537 80.395 434.329 79.915 434.329 78.883C434.329 77.971 433.609 77.443 432.217 77.443ZM432.745 83.659H429.192V86.756H432.793C434.209 86.756 435.025 86.204 435.025 85.172C435.025 84.259 434.305 83.659 432.745 83.659ZM412.921 90.836C407.736 90.836 403.896 86.972 403.896 82.099C403.896 77.275 407.784 73.363 412.969 73.363C418.153 73.363 421.994 77.227 421.994 82.099C421.994 86.924 418.105 90.836 412.921 90.836ZM412.921 77.563C410.377 77.563 408.673 79.627 408.673 82.099C408.673 84.523 410.425 86.636 412.969 86.636C415.537 86.636 417.241 84.571 417.241 82.099C417.241 79.675 415.489 77.563 412.921 77.563ZM397.873 90.5H393.217V77.779H388.176V73.699H402.914V77.779H397.873V90.5ZM378.097 90.836C372.913 90.836 369.072 86.972 369.072 82.099C369.072 77.275 372.961 73.363 378.145 73.363C383.33 73.363 387.17 77.227 387.17 82.099C387.17 86.924 383.282 90.836 378.097 90.836ZM378.097 77.563C375.553 77.563 373.849 79.627 373.849 82.099C373.849 84.523 375.601 86.636 378.145 86.636C380.714 86.636 382.418 84.571 382.418 82.099C382.418 79.675 380.665 77.563 378.097 77.563ZM360.961 90.5H356.304V73.699H368.401V77.779H360.961V90.5ZM357.241 105.93C358.153 105.93 358.633 105.354 358.945 104.49L361.489 104.946C361.129 107.274 359.569 108.618 357.241 108.618C354.937 108.618 353.377 107.274 353.017 104.946L355.561 104.49C355.873 105.354 356.353 105.93 357.241 105.93ZM347.185 90.812C343.345 90.812 341.352 89.66 339.48 88.004L341.905 84.908C343.105 86.108 344.641 86.9 346.633 86.9C348.361 86.9 349.201 86.204 349.201 85.244C349.201 84.331 348.361 83.755 346.513 83.755H344.761V80.299H346.465C348.145 80.299 348.841 79.651 348.841 78.763C348.841 77.899 348.025 77.299 346.729 77.299C345.289 77.299 343.465 77.995 342.409 78.955L340.104 76.219C341.737 74.611 343.921 73.363 347.137 73.363C350.881 73.363 353.426 75.283 353.426 77.899C353.426 79.891 352.393 81.019 350.905 81.715C352.609 82.291 353.858 83.491 353.858 85.604C353.858 88.604 351.313 90.812 347.185 90.812ZM337.633 126.836C332.449 126.836 328.608 122.972 328.608 118.099C328.608 113.275 332.497 109.363 337.681 109.363C342.866 109.363 346.706 113.227 346.706 118.099C346.706 122.924 342.818 126.836 337.633 126.836ZM337.633 113.563C335.089 113.563 333.385 115.627 333.385 118.099C333.385 120.523 335.137 122.636 337.681 122.636C340.249 122.636 341.954 120.571 341.954 118.099C341.954 115.675 340.201 113.563 337.633 113.563ZM332.882 81.043L326.377 90.5H322.033V73.699H326.641V83.155L333.146 73.699H337.49V90.5H332.882V81.043ZM328.586 109.699L322.225 116.923L328.802 126.5H323.209L318.985 120.259L317.281 122.156V126.5H312.624V109.699H317.281V116.515L323.065 109.699H328.586ZM307.274 85.412H305.234L301.849 90.5H296.473L300.481 84.643C298.393 83.755 297.025 82.051 297.025 79.435C297.025 75.499 300.169 73.699 303.986 73.699H311.93V90.5H307.274V85.412ZM307.274 77.659H304.226C302.665 77.659 301.705 78.403 301.705 79.771C301.705 80.995 302.617 81.835 304.202 81.835H307.274V77.659ZM308.426 111.211C309.098 111.883 309.506 112.771 309.506 113.971C309.506 115.915 308.402 117.067 306.913 117.715C308.954 118.387 310.25 119.539 310.25 121.868C310.25 124.748 307.898 126.5 303.889 126.5H295.224V109.699H303.841C305.953 109.699 307.441 110.227 308.426 111.211ZM299.761 122.756H303.361C304.777 122.756 305.593 122.204 305.593 121.172C305.593 120.259 304.873 119.659 303.313 119.659H299.761V122.756ZM302.785 113.443H299.761V116.395H302.689C304.105 116.395 304.897 115.915 304.897 114.883C304.897 113.971 304.177 113.443 302.785 113.443ZM287.714 86.588C289.466 86.588 290.498 85.772 291.506 84.547L295.01 87.044C293.426 89.228 291.29 90.836 287.57 90.836C282.769 90.836 278.905 87.164 278.905 82.099C278.905 77.203 282.673 73.363 287.762 73.363C291.194 73.363 293.33 74.851 294.818 76.915L291.41 79.555C290.45 78.355 289.322 77.611 287.714 77.611C285.362 77.611 283.705 79.603 283.705 82.099C283.705 84.619 285.362 86.588 287.714 86.588ZM271.634 80.851L267.338 87.428H267.242L262.97 80.899V90.5H258.409V73.699H263.33L267.338 80.203L271.346 73.699H276.267V90.5H271.634V80.851ZM261.193 115.987H267.17V109.699H271.826V126.5H267.17V120.115H261.193V126.5H256.537V109.699H261.193V115.987ZM242.161 73.699H255.675V77.659H246.77V80.203H254.835V83.875H246.77V86.54H255.795V90.5H242.161V73.699ZM234.074 87.5H227.594L226.394 90.5H221.497L228.65 73.579H233.138L240.291 90.5H235.299L234.074 87.5ZM230.858 79.099L228.962 83.875H232.73L230.858 79.099ZM213.77 122.588C215.522 122.588 216.554 121.772 217.562 120.547L221.067 123.044C219.482 125.228 217.346 126.836 213.626 126.836C208.826 126.836 204.961 123.164 204.961 118.099C204.961 113.203 208.73 109.363 213.818 109.363C217.25 109.363 219.386 110.851 220.875 112.915L217.466 115.555C216.506 114.355 215.378 113.611 213.77 113.611C211.418 113.611 209.762 115.603 209.762 118.099C209.762 120.619 211.418 122.588 213.77 122.588ZM214.995 80.851L210.698 87.428H210.602L206.33 80.899V90.5H201.77V73.699H206.69L210.698 80.203L214.707 73.699H219.627V90.5H214.995V80.851ZM198.458 122.516C196.922 125.516 195.362 126.74 192.769 126.74C191.161 126.74 189.865 126.284 188.737 125.612L190.561 122.252C191.209 122.684 191.953 122.828 192.457 122.828C192.865 122.828 193.418 122.684 193.922 122.108L187.345 109.699H192.529L196.346 117.595L199.946 109.699H205.011L198.458 122.516ZM193.947 81.043L187.442 90.5H183.098V73.699H187.706V83.155L194.211 73.699H198.555V90.5H193.947V81.043ZM175.227 84.115H169.251V90.5H164.594V73.699H169.251V79.987H175.227V73.699H179.883V90.5H175.227V84.115ZM167.882 119.155L174.386 109.699H178.731V126.5H174.122V117.043L167.618 126.5H163.274V109.699H167.882V119.155ZM156.507 87.5H150.027L148.826 90.5H143.93L151.083 73.579H155.571L162.724 90.5H157.731L156.507 87.5ZM153.291 79.099L151.395 83.875H155.163L153.291 79.099ZM136.634 90.812C132.794 90.812 130.802 89.66 128.93 88.004L131.354 84.908C132.554 86.108 134.09 86.9 136.082 86.9C137.811 86.9 138.651 86.204 138.651 85.244C138.651 84.331 137.811 83.755 135.962 83.755H134.21V80.299H135.914C137.595 80.299 138.291 79.651 138.291 78.763C138.291 77.899 137.475 77.299 136.178 77.299C134.738 77.299 132.914 77.995 131.858 78.955L129.554 76.219C131.186 74.611 133.37 73.363 136.586 73.363C140.331 73.363 142.875 75.283 142.875 77.899C142.875 79.891 141.843 81.019 140.355 81.715C142.059 82.291 143.307 83.491 143.307 85.604C143.307 88.604 140.763 90.812 136.634 90.812ZM237.098 113.779H232.058V126.5H227.401V113.779H222.361V109.699H237.098V113.779ZM247.514 109.579L254.666 126.5H249.674L248.45 123.5H241.969L240.769 126.5H235.873L243.025 109.579H247.514ZM247.106 119.875L245.234 115.099L243.337 119.875H247.106ZM283.537 109.363C288.722 109.363 292.562 113.227 292.562 118.099C292.562 122.924 288.674 126.836 283.489 126.836C278.305 126.836 274.465 122.972 274.465 118.099C274.465 113.275 278.353 109.363 283.537 109.363ZM283.537 122.636C286.106 122.636 287.81 120.571 287.81 118.099C287.81 115.675 286.058 113.563 283.489 113.563C280.945 113.563 279.241 115.627 279.241 118.099C279.241 120.523 280.993 122.636 283.537 122.636ZM353.977 119.155L360.481 109.699H364.826V126.5H360.217V117.043L353.713 126.5H349.368V109.699H353.977V119.155ZM383.425 109.363C388.609 109.363 392.449 113.227 392.449 118.099C392.449 122.924 388.561 126.836 383.377 126.836C378.192 126.836 374.352 122.972 374.352 118.099C374.352 113.275 378.24 109.363 383.425 109.363ZM383.425 122.636C385.993 122.636 387.697 120.571 387.697 118.099C387.697 115.675 385.945 113.563 383.377 113.563C380.832 113.563 379.128 115.627 379.128 118.099C379.128 120.523 380.88 122.636 383.425 122.636ZM399.768 116.515L405.553 109.699H411.073L404.713 116.923L411.289 126.5H405.697L401.472 120.259L399.768 122.156V126.5H395.112V109.699H399.768V116.515ZM420.169 109.363C425.353 109.363 429.193 113.227 429.193 118.099C429.193 122.924 425.305 126.836 420.121 126.836C414.936 126.836 411.096 122.972 411.096 118.099C411.096 113.275 414.984 109.363 420.169 109.363ZM420.169 122.636C422.737 122.636 424.441 120.571 424.441 118.099C424.441 115.675 422.689 113.563 420.121 113.563C417.576 113.563 415.872 115.627 415.872 118.099C415.872 120.523 417.624 122.636 420.169 122.636ZM436.512 115.987H442.489V109.699H447.145V126.5H442.489V120.115H436.512V126.5H431.856V109.699H436.512V115.987ZM460.944 109.699L464.76 117.595L468.36 109.699H473.425L466.872 122.516C465.336 125.516 463.776 126.74 461.184 126.74C459.576 126.74 458.279 126.284 457.151 125.612L458.975 122.252C459.624 122.684 460.368 122.828 460.872 122.828C461.28 122.828 461.832 122.684 462.336 122.108L455.759 109.699H460.944ZM515.208 113.659H506.303V116.203H514.368V119.875H506.303V122.54H515.328V126.5H501.695V109.699H515.208V113.659Z" fill="white"/>
<defs>
<filter id="filter0_d" x="99.5472" y="176.532" width="284.916" height="181.901" filterUnits="userSpaceOnUse" color-interpolation-filters="sRGB">
<feFlood flood-opacity="0" result="BackgroundImageFix"/>
<feColorMatrix in="SourceAlpha" type="matrix" values="0 0 0 0 0 0 0 0 0 0 0 0 0 0 0 0 0 0 127 0"/>
<feOffset dy="-10"/>
<feGaussianBlur stdDeviation="1.732"/>
<feColorMatrix type="matrix" values="0 0 0 0 0.0352941 0 0 0 0 0.0196078 0 0 0 0 0.137255 0 0 0 1 0"/>
<feBlend mode="normal" in2="BackgroundImageFix" result="effect1_dropShadow"/>
<feBlend mode="normal" in="SourceGraphic" in2="effect1_dropShadow" result="shape"/>
</filter>
<filter id="filter1_d" x="383.533" y="283.523" width="193.942" height="72.476" filterUnits="userSpaceOnUse" color-interpolation-filters="sRGB">
<feFlood flood-opacity="0" result="BackgroundImageFix"/>
<feColorMatrix in="SourceAlpha" type="matrix" values="0 0 0 0 0 0 0 0 0 0 0 0 0 0 0 0 0 0 127 0"/>
<feOffset dy="-9"/>
<feGaussianBlur stdDeviation="1.732"/>
<feColorMatrix type="matrix" values="0 0 0 0 0.0352941 0 0 0 0 0.0196078 0 0 0 0 0.137255 0 0 0 1 0"/>
<feBlend mode="normal" in2="BackgroundImageFix" result="effect1_dropShadow"/>
<feBlend mode="normal" in="SourceGraphic" in2="effect1_dropShadow" result="shape"/>
</filter>
</defs>
</svg>
