<svg width="206" height="44" viewBox="0 0 206 44" fill="none" xmlns="http://www.w3.org/2000/svg">
<path d="M19.0931 20.4524V34.6658H16.5474V17.2703H33.3065V20.4524H19.0931Z" fill="#E31E24"/>
<path d="M36.4882 37.8478V10.0574H42.2161V43.9999H9.12207V37.8478H36.4882Z" fill="#2B2A29"/>
<path d="M5.22028 6.95307V35.7266H0V0.51123H34.3668V6.95307H5.22028Z" fill="#E31E24"/>
<path d="M12.5832 14.4244V34.8778H8.90967V9.84521H33.0937V14.4244H12.5832Z" fill="#E31E24"/>
<path d="M51.508 28.0889H56.3077V14.9763H62.2208V28.0889H67.0205V10.7704H51.508V28.0889ZM68.7023 28.0889H73.7494L74.9864 24.9963H81.6664L82.9282 28.0889H88.0742L80.7015 10.6467H76.075L68.7023 28.0889ZM76.3966 21.2604L78.3511 16.337L80.2809 21.2604H76.3966ZM89.7547 28.0889H94.5544V21.5078H100.715V28.0889H105.515V10.7704H100.715V17.2524H94.5544V10.7704H89.7547V28.0889ZM117.285 28.4352C122.629 28.4352 126.637 24.4025 126.637 19.4296C126.637 14.4072 122.678 10.424 117.334 10.424C111.99 10.424 107.982 14.4567 107.982 19.4296C107.982 24.452 111.941 28.4352 117.285 28.4352ZM117.334 24.1056C114.712 24.1056 112.906 21.9284 112.906 19.4296C112.906 16.8813 114.662 14.7536 117.285 14.7536C119.932 14.7536 121.738 16.9308 121.738 19.4296C121.738 21.9779 119.981 24.1056 117.334 24.1056Z" fill="#232323"/>
<path d="M129.137 28.0889H133.937V23.1407H136.312C140.617 23.1407 143.759 20.9883 143.759 16.9061C143.759 13.0218 140.938 10.7704 136.559 10.7704H129.137V28.0889ZM133.937 19.3801V14.8031H136.188C137.92 14.8031 138.959 15.5948 138.959 17.0792C138.959 18.4895 137.92 19.3801 136.213 19.3801H133.937ZM144.398 28.0889H149.445L150.682 24.9963H157.362L158.624 28.0889H163.77L156.397 10.6467H151.771L144.398 28.0889ZM152.093 21.2604L154.047 16.337L155.977 21.2604H152.093ZM165.451 28.0889H170.151V18.1926L174.555 24.9221H174.654L179.083 18.1431V28.0889H183.858V10.7704H178.786L174.654 17.4751L170.523 10.7704H165.451V28.0889ZM185.544 28.0889H190.591L191.828 24.9963H198.508L199.77 28.0889H204.916L197.543 10.6467H192.917L185.544 28.0889ZM193.239 21.2604L195.193 16.337L197.123 21.2604H193.239Z" fill="#E31E24"/>
<path d="M53.8483 40.0134C55.5894 40.0134 56.8712 38.6782 56.8712 37.076C56.8712 35.4418 55.6001 34.1279 53.8697 34.1279C52.1393 34.1279 50.8575 35.4631 50.8575 37.076C50.8575 38.6996 52.1286 40.0134 53.8483 40.0134ZM53.8697 38.8919C52.8656 38.8919 52.15 38.0587 52.15 37.076C52.15 36.072 52.8122 35.2602 53.8483 35.2602C54.8631 35.2602 55.5787 36.0826 55.5787 37.076C55.5787 38.0694 54.9165 38.8919 53.8697 38.8919ZM62.2464 39.8853H63.5282V38.5287L64.4468 37.5567L66.1558 39.8853H67.6833L65.312 36.6167L67.5017 34.2454H65.9849L63.5282 36.9478V34.2454H62.2464V39.8853ZM75.3181 40.0134C77.0592 40.0134 78.341 38.6782 78.341 37.076C78.341 35.4418 77.0699 34.1279 75.3395 34.1279C73.6091 34.1279 72.3273 35.4631 72.3273 37.076C72.3273 38.6996 73.5984 40.0134 75.3181 40.0134ZM75.3395 38.8919C74.3354 38.8919 73.6197 38.0587 73.6197 37.076C73.6197 36.072 74.282 35.2602 75.3181 35.2602C76.3328 35.2602 77.0485 36.0826 77.0485 37.076C77.0485 38.0694 76.3862 38.8919 75.3395 38.8919ZM83.7162 39.8853H85.0086V37.6101H87.4974V39.8853H88.7899V34.2454H87.4974V36.5313H85.0086V34.2454H83.7162V39.8853ZM94.4719 39.8853H95.7644V37.6101H98.2532V39.8853H99.5456V34.2454H98.2532V36.5313H95.7644V34.2454H94.4719V39.8853ZM105.228 39.8853H107.802C109.126 39.8853 109.949 39.1696 109.949 38.0053C109.949 36.7769 108.977 36.2215 107.706 36.2215H106.52V34.2454H105.228V39.8853ZM106.52 38.8385V37.2256H107.61C108.272 37.2256 108.656 37.5033 108.656 38.0053C108.656 38.5501 108.283 38.8385 107.631 38.8385H106.52ZM110.803 39.8853H112.096V34.2454H110.803V39.8853ZM120.362 40.0134C121.399 40.0134 122.136 39.5969 122.67 38.956L121.911 38.283C121.463 38.721 121.014 38.956 120.384 38.956C119.551 38.956 118.899 38.4433 118.76 37.5246H122.905C122.915 37.4606 122.926 37.2469 122.926 37.1615C122.926 35.5379 122.018 34.1279 120.224 34.1279C118.611 34.1279 117.468 35.4524 117.468 37.0653C117.468 38.8278 118.728 40.0134 120.362 40.0134ZM118.75 36.6701C118.867 35.7942 119.423 35.1854 120.213 35.1854C121.067 35.1854 121.559 35.837 121.644 36.6701H118.75ZM138.151 40.0134C139.251 40.0134 139.902 39.5755 140.458 38.956L139.678 38.1869C139.272 38.6035 138.824 38.8919 138.215 38.8919C137.221 38.8919 136.527 38.0801 136.527 37.076V37.0547C136.527 36.072 137.211 35.2602 138.151 35.2602C138.802 35.2602 139.219 35.5486 139.614 35.9651L140.415 35.0999C139.892 34.5231 139.229 34.1279 138.161 34.1279C136.474 34.1279 135.235 35.4738 135.235 37.076V37.0974C135.235 38.6996 136.474 40.0134 138.151 40.0134ZM145.653 39.8853H146.871L149.552 36.1254V39.8853H150.802V34.2454H149.584C148.687 35.5058 147.8 36.7663 146.914 38.0267V34.2454H145.653V39.8853ZM159.088 40.0134C160.189 40.0134 160.84 39.5755 161.396 38.956L160.616 38.1869C160.21 38.6035 159.761 38.8919 159.152 38.8919C158.159 38.8919 157.465 38.0801 157.465 37.076V37.0547C157.465 36.072 158.148 35.2602 159.088 35.2602C159.74 35.2602 160.157 35.5486 160.552 35.9651L161.353 35.0999C160.829 34.5231 160.167 34.1279 159.099 34.1279C157.411 34.1279 156.172 35.4738 156.172 37.076V37.0974C156.172 38.6996 157.411 40.0134 159.088 40.0134ZM167.798 39.8853H169.101V35.3563H170.917V34.2454H165.982V35.3563H167.798V39.8853ZM178.586 40.0134C179.622 40.0134 180.359 39.5969 180.893 38.956L180.135 38.283C179.686 38.721 179.238 38.956 178.608 38.956C177.774 38.956 177.123 38.4433 176.984 37.5246H181.128C181.139 37.4606 181.15 37.2469 181.15 37.1615C181.15 35.5379 180.242 34.1279 178.447 34.1279C176.834 34.1279 175.691 35.4524 175.691 37.0653C175.691 38.8278 176.952 40.0134 178.586 40.0134ZM176.973 36.6701C177.091 35.7942 177.646 35.1854 178.437 35.1854C179.291 35.1854 179.782 35.837 179.868 36.6701H176.973ZM186.507 39.8853H187.767V36.1467L189.53 38.6569L191.303 36.1254V39.8853H192.606V34.2454H191.324L189.551 36.8624L187.788 34.2454H186.507V39.8853ZM198.285 39.8853H200.859C202.183 39.8853 203.006 39.1696 203.006 38.0053C203.006 36.7769 202.034 36.2215 200.763 36.2215H199.577V34.2454H198.285V39.8853ZM199.577 38.8385V37.2256H200.667C201.329 37.2256 201.713 37.5033 201.713 38.0053C201.713 38.5501 201.34 38.8385 200.688 38.8385H199.577ZM203.86 39.8853H205.153V34.2454H203.86V39.8853Z" fill="#464646"/>
</svg>
