<svg width="260" height="224" viewBox="0 0 260 224" fill="none" xmlns="http://www.w3.org/2000/svg">
<path d="M129.81 45.5901L30.79 95.5901V125.59L129.81 75.5901L228.83 125.59V95.5901L129.81 45.5901Z" fill="#FFCE00"/>
<path d="M129.81 0L30.79 50V80L129.81 30L228.83 80V50L129.81 0Z" fill="#FFCE00"/>
<path d="M259.62 138.39H0V223.87H259.62V138.39Z" fill="#FFCE00"/>
<path d="M39.4004 199.61V170H47.6104V181.09H58.1504V170H66.3604V199.64H58.1504V188.34H47.6104V199.6L39.4004 199.61Z" fill="black"/>
<path d="M69.25 199.61L81.87 169.76H89.79L102.41 199.61H93.59L91.43 194.32H80L77.88 199.61H69.25ZM82.42 187.92H89.07L85.77 179.49L82.42 187.92Z" fill="black"/>
<path d="M105.28 199.61V170H120.48C124.094 170 126.79 170.89 128.57 172.67C129.204 173.308 129.701 174.07 130.029 174.907C130.358 175.745 130.511 176.641 130.48 177.54C130.48 180.62 128.957 182.823 125.91 184.15C127.587 184.622 129.102 185.546 130.29 186.82C131.346 188.136 131.879 189.795 131.79 191.48C131.833 192.651 131.58 193.814 131.056 194.863C130.532 195.911 129.753 196.811 128.79 197.48C126.79 198.933 124.037 199.66 120.53 199.66L105.28 199.61ZM113.28 181.78H118.45C121.044 181.78 122.344 180.89 122.35 179.11C122.357 177.33 121.114 176.483 118.62 176.57H113.28V181.78ZM113.28 193H119.63C122.257 193 123.57 192.07 123.57 190.21C123.57 188.35 122.237 187.46 119.57 187.54H113.3L113.28 193Z" fill="black"/>
<path d="M135.55 199.61V170H159.39V177H143.68V181.49H157.91V187.97H143.68V192.67H159.6V199.67L135.55 199.61Z" fill="black"/>
<path d="M163.79 199.61V170H176.49C180.27 170 183.27 170.923 185.49 172.77C186.556 173.777 187.401 174.993 187.973 176.343C188.545 177.692 188.831 179.146 188.813 180.612C188.795 182.077 188.474 183.523 187.869 184.859C187.264 186.194 186.39 187.39 185.3 188.37C182.636 190.334 179.376 191.319 176.07 191.16H172V199.63L163.79 199.61ZM172 184.7H175.9C177.14 184.773 178.365 184.396 179.35 183.64C179.764 183.286 180.091 182.843 180.308 182.344C180.524 181.845 180.624 181.303 180.6 180.76C180.634 180.212 180.539 179.664 180.322 179.161C180.105 178.657 179.772 178.211 179.35 177.86C178.334 177.14 177.103 176.787 175.86 176.86H172V184.7Z" fill="black"/>
<path d="M190.13 199.61L200.29 184.54L190.55 170H200L205.25 178.34L210.54 170H219.77L210 184.45L220.16 199.61H210.72L205.05 190.68L199.33 199.61H190.13Z" fill="black"/>
</svg>
