<svg width="230" height="88" viewBox="0 0 230 88" fill="none" xmlns="http://www.w3.org/2000/svg">
<path d="M230 61.5246V0.38501H63.9896H62.0057H30.9888V1.39096V17.0391L61.9498 1.39096H62.0057V10.7799L30.9888 26.428V35.0345L62.0057 19.3863V28.7752L30.9888 44.4234V53.0299L62.0057 37.3817V46.7706L30.9888 62.4188V71.0253L62.0057 55.3771V64.766L30.9888 80.4142V87.4H207.031L230 61.5246Z" fill="#FFCE00"/>
<path d="M30.9889 17.0391L0 1.36304V10.7799L30.9889 26.428V17.0391Z" fill="#FFCE00"/>
<path d="M30.9889 35.0346L0 19.3865V28.7754L30.9889 44.4235V35.0346Z" fill="#FFCE00"/>
<path d="M30.9889 53.03L0 37.3818V46.7707L30.9889 62.4189V53.03Z" fill="#FFCE00"/>
<path d="M30.9889 71.0254L0 55.3772V64.7661L30.9889 80.4142V71.0254Z" fill="#FFCE00"/>
<path d="M84.5842 14.1048C83.3826 14.1048 82.3766 13.6857 81.5663 12.8753C80.7559 12.065 80.3647 11.059 80.3647 9.85746C80.3647 8.68385 80.7559 7.6779 81.5663 6.8396C82.3766 6.02925 83.3826 5.61011 84.64 5.61011C85.3386 5.61011 85.9534 5.72188 86.4284 5.94542C86.9034 6.16897 87.3785 6.50429 87.7976 6.92343L86.7078 8.15293C86.3446 7.84556 86.0372 7.59407 85.7298 7.45435C85.4225 7.31464 85.0592 7.23081 84.6121 7.23081C83.9135 7.23081 83.3547 7.4823 82.9076 7.98527C82.4605 8.48825 82.2369 9.103 82.2369 9.82952C82.2369 10.556 82.4605 11.1708 82.9076 11.6458C83.3547 12.1488 83.9135 12.4003 84.6121 12.4003C85.0592 12.4003 85.4225 12.3165 85.7578 12.1767C86.0651 12.0091 86.4284 11.7855 86.7637 11.4502L87.9094 12.6797C87.4623 13.1548 86.9873 13.518 86.4563 13.7416C85.9534 13.9931 85.3386 14.1048 84.5842 14.1048Z" fill="#212121"/>
<path d="M95.2305 13.9653V5.75H102.077V13.9653H100.26V7.39864H97.0188V13.9653H95.2305Z" fill="#212121"/>
<path d="M117.026 12.8475C116.188 13.6858 115.154 14.077 113.897 14.077C112.639 14.077 111.605 13.6578 110.795 12.8475C109.957 12.0371 109.565 11.0312 109.565 9.82963C109.565 8.65602 109.985 7.65007 110.823 6.81177C111.661 6.00142 112.695 5.58228 113.953 5.58228C115.21 5.58228 116.244 6.00142 117.054 6.81177C117.892 7.62212 118.284 8.62808 118.284 9.82963C118.256 11.0312 117.837 12.0371 117.026 12.8475ZM112.136 11.6739C112.611 12.1769 113.198 12.4283 113.925 12.4283C114.651 12.4283 115.238 12.1769 115.685 11.6739C116.132 11.1709 116.384 10.5562 116.384 9.82963C116.384 9.10311 116.16 8.48836 115.685 8.01333C115.21 7.51035 114.623 7.25886 113.897 7.25886C113.17 7.25886 112.583 7.51035 112.136 8.01333C111.661 8.5163 111.438 9.13106 111.438 9.85758C111.438 10.5841 111.661 11.1709 112.136 11.6739Z" fill="#212121"/>
<path d="M125.717 13.9653V5.75H127.533V9.32672L130.858 5.75H133.038L129.685 9.24289L133.178 13.9653H131.026L128.483 10.4724L127.533 11.4504V13.9653H125.717Z" fill="#212121"/>
<path d="M147.261 12.8475C146.422 13.6858 145.388 14.077 144.131 14.077C142.874 14.077 141.84 13.6578 141.029 12.8475C140.191 12.0371 139.8 11.0312 139.8 9.82963C139.8 8.65602 140.219 7.65007 141.057 6.81177C141.896 6.00142 142.929 5.58228 144.187 5.58228C145.444 5.58228 146.478 6.00142 147.289 6.81177C148.127 7.62212 148.518 8.62808 148.518 9.82963C148.49 11.0312 148.071 12.0371 147.261 12.8475ZM142.371 11.6739C142.846 12.1769 143.432 12.4283 144.159 12.4283C144.885 12.4283 145.472 12.1769 145.919 11.6739C146.366 11.1709 146.618 10.5562 146.618 9.82963C146.618 9.10311 146.394 8.48836 145.919 8.01333C145.444 7.51035 144.858 7.25886 144.131 7.25886C143.404 7.25886 142.818 7.51035 142.371 8.01333C141.896 8.5163 141.672 9.13106 141.672 9.85758C141.672 10.5841 141.896 11.1709 142.371 11.6739Z" fill="#212121"/>
<path d="M163.02 5.75008V13.9654H161.232V8.57234L157.655 13.9654H155.951V5.75008H157.739V11.1152L161.344 5.75008H163.02ZM160.869 4.6603C160.533 4.96767 160.086 5.13533 159.527 5.13533C158.996 5.13533 158.549 4.96767 158.186 4.6603C157.851 4.35292 157.627 3.90583 157.543 3.34697L158.577 3.15137C158.745 3.68229 159.052 3.93378 159.499 3.93378C159.947 3.93378 160.254 3.68229 160.422 3.15137L161.455 3.34697C161.428 3.90583 161.204 4.35292 160.869 4.6603Z" fill="#212121"/>
<path d="M170.845 13.9653V5.75H172.661V8.9914H175.986V5.75H177.803V13.9653H175.986V10.668H172.661V13.9653H170.845Z" fill="#212121"/>
<path d="M184.928 13.9653L188.449 5.69409H190.126L193.646 13.9653H191.746L190.992 12.121H187.527L186.772 13.9653H184.928ZM188.142 10.5283H190.321L189.231 7.87366L188.142 10.5283Z" fill="#212121"/>
<path d="M207.226 5.75V13.9653H205.41V11.3386H203.985L202.225 13.9653H200.129L202.141 11.0313C200.967 10.5842 200.38 9.74587 200.38 8.46048C200.38 7.62219 200.66 6.95155 201.219 6.47652C201.778 6.00149 202.532 5.75 203.482 5.75H207.226V5.75ZM203.594 9.74587H205.41V7.39864H203.622C203.175 7.39864 202.839 7.51042 202.588 7.70602C202.336 7.90162 202.225 8.209 202.225 8.6002C202.225 8.96346 202.336 9.24289 202.588 9.43849C202.839 9.6341 203.175 9.74587 203.594 9.74587Z" fill="#212121"/>
<path d="M80.4209 47.3583V20.2534H88.3567L94.8396 30.76L101.322 20.2534H109.258V47.3583H101.769V31.7939L94.8396 42.4123H94.6998L87.7979 31.8778V47.3583H80.4209Z" fill="#212121"/>
<path d="M112.081 47.3573L123.621 20.0569H130.858L142.399 47.3573H134.351L132.367 42.5232H121.917L119.988 47.3573H112.081ZM124.124 36.6831H130.216L127.198 28.9708L124.124 36.6831Z" fill="#212121"/>
<path d="M145.249 47.3575V20.2527H153.185L159.668 30.7593L166.15 20.2527H174.058V47.3575H166.57V31.7932L159.64 42.4116H159.472L152.57 31.877V47.3575H145.249Z" fill="#212121"/>
<path d="M176.909 47.3573L188.449 20.0569H195.686L207.227 47.3573H199.179L197.195 42.5232H186.745L184.817 47.3573H176.909ZM188.952 36.6831H195.044L192.026 28.9708L188.952 36.6831Z" fill="#212121"/>
<path d="M86.4842 84.6335C84.8635 84.6335 83.5223 84.1026 82.4604 82.9848C81.3986 81.8951 80.8677 80.5538 80.8677 78.961C80.8677 77.3962 81.3986 76.055 82.4884 74.9372C83.5782 73.8474 84.9194 73.2886 86.5401 73.2886C87.4902 73.2886 88.2726 73.4283 88.9433 73.7357C89.6139 74.043 90.2566 74.4622 90.8713 75.049L90.033 75.9152C88.9432 74.9093 87.7696 74.4063 86.5122 74.4063C85.2827 74.4063 84.2488 74.8254 83.4105 75.6917C82.5722 76.5579 82.181 77.6198 82.181 78.9051C82.181 80.1905 82.6002 81.2524 83.4384 82.1186C84.2767 82.9848 85.3106 83.4319 86.5401 83.4319C87.2667 83.4319 87.9094 83.2922 88.4682 83.0407C89.0271 82.7893 89.5859 82.3701 90.1727 81.8392L91.011 82.7054C90.3683 83.3202 89.7257 83.7952 89.0271 84.1026C88.2726 84.4938 87.4623 84.6335 86.4842 84.6335Z" fill="#212121"/>
<path d="M96.1527 84.4659V74.6299H92.3804V73.5122H101.21V74.6299H97.4381V84.4659H96.1527Z" fill="#212121"/>
<path d="M103.558 84.4659V73.5122H111.661V74.6299H104.815V78.3743H110.935V79.492H104.815V83.3203H111.745V84.438H103.558V84.4659Z" fill="#212121"/>
<path d="M114.315 84.4659V73.5122H115.573V80.0509L122.028 73.5122H123.676L118.87 78.2905L123.9 84.4659H122.307L118.004 79.1567L115.601 81.5319V84.4659H114.315V84.4659Z" fill="#212121"/>
<path d="M125.633 84.5776C125.13 84.5776 124.655 84.4937 124.18 84.2981L124.431 83.2922C124.655 83.4039 124.99 83.4598 125.437 83.4598C125.661 83.4598 125.856 83.4319 126.024 83.3481C126.192 83.2922 126.387 83.0966 126.639 82.7892C126.862 82.4818 127.058 82.0627 127.225 81.5318C127.365 81.0008 127.505 80.2184 127.617 79.1566C127.728 78.1227 127.784 76.8932 127.784 75.4681V73.4841H135.05V84.4378H133.792V74.6019H129.014V75.8034C129.014 77.2844 128.958 78.5698 128.818 79.6596C128.706 80.7494 128.539 81.5876 128.343 82.2303C128.148 82.8451 127.896 83.3481 127.589 83.7113C127.281 84.0746 126.974 84.3261 126.695 84.4099C126.359 84.5217 126.024 84.5776 125.633 84.5776Z" fill="#212121"/>
<path d="M147.54 82.9849C146.45 84.1026 145.081 84.6615 143.404 84.6615C141.728 84.6615 140.359 84.1026 139.297 83.0128C138.235 81.8951 137.704 80.5818 137.704 79.0169C137.704 77.4521 138.235 76.1388 139.325 75.0211C140.415 73.9033 141.784 73.3445 143.432 73.3445C145.109 73.3445 146.478 73.9033 147.54 74.9931C148.602 76.1109 149.133 77.4242 149.133 78.989C149.133 80.5259 148.602 81.8671 147.54 82.9849ZM140.275 82.1745C141.113 83.0408 142.175 83.4878 143.432 83.4878C144.718 83.4878 145.752 83.0408 146.59 82.1745C147.428 81.3083 147.82 80.2464 147.82 78.9611C147.82 77.7036 147.4 76.6418 146.562 75.7476C145.724 74.8534 144.662 74.4343 143.404 74.4343C142.119 74.4343 141.085 74.8814 140.247 75.7476C139.409 76.6138 139.017 77.7036 139.017 78.9611C139.017 80.2464 139.437 81.3083 140.275 82.1745Z" fill="#212121"/>
<path d="M151.815 84.4659V73.5122H160.673V84.4659H159.415V74.6299H153.1V84.4659H151.815Z" fill="#212121"/>
<path d="M162.881 84.466L167.994 73.4285H169.168L174.282 84.466H172.94L171.627 81.5599H165.508L164.166 84.466H162.881ZM166.01 80.4422H171.124L168.581 74.8536L166.01 80.4422Z" fill="#212121"/>
<path d="M176.517 84.4659V73.5122H177.774V80.0509L184.229 73.5122H185.878L181.071 78.2905L186.101 84.4659H184.508L180.205 79.1567L177.802 81.5319V84.4659H176.517V84.4659Z" fill="#212121"/>
<path d="M188.058 84.4659V73.5122H196.161V74.6299H189.315V78.3743H195.435V79.492H189.315V83.3203H196.245V84.438H188.058V84.4659Z" fill="#212121"/>
<path d="M201.749 84.4659V74.6299H197.977V73.5122H206.807V74.6299H203.035V84.4659H201.749Z" fill="#212121"/>
<path d="M82.3486 67.7281V56.0479H90.7316V57.2494H83.662V60.8261H87.1269C88.4402 60.8261 89.5021 61.1056 90.3404 61.6924C91.1507 62.2792 91.5699 63.1175 91.5699 64.2352C91.5699 65.3529 91.1787 66.2192 90.3963 66.8339C89.6138 67.4487 88.58 67.7281 87.2387 67.7281H82.3486V67.7281ZM83.662 66.5265H87.1549C89.2227 66.5265 90.2286 65.7441 90.2286 64.1793C90.2286 63.4528 89.9492 62.9219 89.3903 62.5586C88.8314 62.1953 88.049 62.0277 87.071 62.0277H83.662V66.5265Z" fill="#212121"/>
<path d="M94.1689 67.7281V56.0479H102.608V57.2494H95.4823V61.2453H101.853V62.4468H95.4823V66.5265H102.692V67.7281H94.1689V67.7281Z" fill="#212121"/>
<path d="M109.23 67.9236C107.358 67.9236 105.737 67.3089 104.368 66.0514L105.151 65.1293C106.324 66.247 107.693 66.8059 109.258 66.8059C110.013 66.8059 110.655 66.6103 111.186 66.1911C111.717 65.772 111.997 65.2411 111.997 64.5704C111.997 63.8439 111.717 63.313 111.13 62.9497C110.544 62.5865 109.789 62.4188 108.839 62.4188H107.554V61.329H108.839C109.677 61.329 110.376 61.1334 110.907 60.7422C111.438 60.351 111.689 59.8201 111.689 59.1215C111.689 58.5347 111.438 58.0317 110.935 57.6405C110.432 57.2493 109.817 57.0537 109.035 57.0537C107.721 57.0537 106.576 57.5008 105.598 58.3671L104.843 57.4449C105.458 56.914 106.101 56.5228 106.743 56.2713C107.414 56.0198 108.168 55.8801 109.063 55.8801C110.208 55.8801 111.158 56.1875 111.885 56.7743C112.611 57.3611 112.975 58.1156 112.975 59.0098C112.975 60.3231 112.276 61.2452 110.851 61.7761C111.605 61.9997 112.192 62.3629 112.639 62.838C113.086 63.313 113.31 63.9278 113.31 64.6543C113.31 65.6043 112.919 66.3867 112.164 67.0294C111.41 67.6162 110.432 67.9236 109.23 67.9236Z" fill="#212121"/>
<path d="M125.66 66.1631C124.543 67.3367 123.117 67.9514 121.385 67.9514C119.653 67.9514 118.227 67.3646 117.11 66.191C115.992 65.0174 115.433 63.5923 115.433 61.9157C115.433 60.2671 115.992 58.842 117.11 57.6404C118.227 56.4668 119.653 55.8521 121.385 55.8521C123.117 55.8521 124.543 56.4389 125.66 57.6125C126.778 58.7861 127.337 60.2112 127.337 61.8878C127.365 63.5364 126.806 64.9615 125.66 66.1631ZM118.116 65.2968C118.982 66.219 120.1 66.694 121.413 66.694C122.726 66.694 123.816 66.219 124.682 65.2968C125.549 64.3747 125.968 63.229 125.968 61.8598C125.968 60.5186 125.521 59.3729 124.654 58.4508C123.788 57.5286 122.67 57.0536 121.357 57.0536C120.044 57.0536 118.954 57.5286 118.088 58.4508C117.221 59.3729 116.802 60.5186 116.802 61.8878C116.802 63.229 117.249 64.3747 118.116 65.2968Z" fill="#212121"/>
<path d="M130.131 67.7281V56.0479H139.353V67.7281H138.039V57.2494H131.473V67.7281H130.131Z" fill="#212121"/>
<path d="M141.644 67.7282L146.953 55.9641H148.183L153.492 67.7282H152.067L150.698 64.6544H144.355L142.957 67.7282H141.644ZM144.913 63.4529H150.223L147.568 57.501L144.913 63.4529Z" fill="#212121"/>
<path d="M161.176 67.9235C159.5 67.9235 158.102 67.3367 156.985 66.191C155.867 65.0174 155.308 63.5923 155.308 61.8878C155.308 60.2112 155.867 58.7861 156.985 57.6125C158.102 56.4389 159.528 55.8521 161.204 55.8521C162.182 55.8521 163.02 56.0197 163.719 56.3271C164.418 56.6345 165.088 57.1095 165.731 57.7242L164.865 58.6464C163.747 57.5845 162.517 57.0536 161.204 57.0536C159.919 57.0536 158.829 57.5286 157.963 58.4508C157.096 59.3729 156.677 60.5186 156.677 61.8878C156.677 63.257 157.124 64.3747 157.991 65.3248C158.857 66.2469 159.919 66.7219 161.204 66.7219C161.959 66.7219 162.629 66.5822 163.216 66.3028C163.803 66.0234 164.39 65.6042 164.976 65.0453L165.843 65.9675C165.2 66.6102 164.501 67.1131 163.775 67.4485C163.048 67.7558 162.182 67.9235 161.176 67.9235Z" fill="#212121"/>
<path d="M168.162 67.7281V56.0479H169.475V61.2453H176.21V56.0479H177.523V67.7281H176.21V62.4748H169.475V67.7281H168.162Z" fill="#212121"/>
<path d="M180.82 67.7281V56.0479H182.134V60.5746H185.096C186.437 60.5746 187.527 60.8541 188.365 61.4129C189.203 61.9718 189.622 62.838 189.622 64.0116C189.622 65.1573 189.231 66.0515 188.449 66.7221C187.666 67.3928 186.605 67.7281 185.291 67.7281H180.82ZM182.162 66.5265H185.291C186.241 66.5265 186.996 66.303 187.527 65.8838C188.058 65.4647 188.337 64.8499 188.337 64.0396C188.337 63.2851 188.058 62.7263 187.499 62.3351C186.94 61.9439 186.185 61.7483 185.179 61.7483H182.162V66.5265ZM191.131 67.7281V56.0479H192.445V67.7281H191.131Z" fill="#212121"/>
<path d="M195.77 67.7279V56.0477H197.083V65.744L204.069 56.0477H205.327V67.7279H204.013V58.0317L197.055 67.7279H195.77ZM202.197 54.5108C201.75 54.902 201.247 55.0976 200.604 55.0976C199.989 55.0976 199.459 54.902 199.011 54.5108C198.564 54.1196 198.313 53.6446 198.201 53.0298L199.095 52.8342C199.319 53.6166 199.822 54.0078 200.576 54.0078C201.331 54.0078 201.834 53.6166 202.057 52.8342L202.951 53.0298C202.896 53.6166 202.644 54.1196 202.197 54.5108Z" fill="#212121"/>
</svg>
