<svg width="136" height="21" viewBox="0 0 136 21" fill="none" xmlns="http://www.w3.org/2000/svg">
<path fill-rule="evenodd" clip-rule="evenodd" d="M130.865 13.522L131.797 20.999L124.999 17.799L118.201 20.999L119.133 13.522L114 8.021L121.374 6.6L124.999 0L128.624 6.6L135.998 8.021L130.865 13.522ZM103.797 20.999L96.999 17.799L90.201 20.999L91.133 13.522L86 8.021L93.374 6.6L96.999 0L100.624 6.6L107.998 8.021L102.865 13.522L103.797 20.999ZM74.796 20.999L67.999 17.799L61.201 20.999L62.133 13.522L57 8.021L64.374 6.6L67.999 0L71.624 6.6L78.998 8.021L73.865 13.522L74.796 20.999ZM46.796 20.999L39.999 17.799L33.201 20.999L34.133 13.522L29 8.021L36.374 6.6L39.999 0L43.624 6.6L50.997 8.021L45.865 13.522L46.796 20.999ZM17.796 20.999L10.999 17.799L4.201 20.999L5.133 13.522L0 8.021L7.374 6.6L10.999 0L14.624 6.6L21.997 8.021L16.865 13.522L17.796 20.999Z" fill="#E6D90C"/>
</svg>
